<svg xmlns="http://www.w3.org/2000/svg" viewBox="0 0 300 300" width="300" height="300" role="img" aria-label="Baumholz Home Logo">
  <defs>
    <!-- Rich golden gradient for the emblem -->
    <linearGradient id="goldGradient" x1="0%" y1="0%" x2="100%" y2="100%">
      <stop offset="0%" stop-color="#FFD700"/>
      <stop offset="50%" stop-color="#D4AF37"/>
      <stop offset="100%" stop-color="#B8860B"/>
    </linearGradient>
    
    <!-- Tree gradient -->
    <linearGradient id="treeGradient" x1="0%" y1="0%" x2="100%" y2="100%">
      <stop offset="0%" stop-color="#228B22"/>
      <stop offset="100%" stop-color="#006400"/>
    </linearGradient>
    
    <!-- Chalice gradient -->
    <linearGradient id="chaliceGradient" x1="0%" y1="0%" x2="100%" y2="100%">
      <stop offset="0%" stop-color="#FFD700"/>
      <stop offset="50%" stop-color="#DAA520"/>
      <stop offset="100%" stop-color="#B8860B"/>
    </linearGradient>
  </defs>
  
  <!-- Enclosing circle -->
  <circle cx="150" cy="150" r="120" fill="none" stroke="url(#goldGradient)" stroke-width="3"/>
  
  <!-- Chalice/Cup -->
  <g>
    <!-- Chalice bowl -->
    <ellipse cx="150" cy="140" rx="45" ry="35" fill="url(#chaliceGradient)" stroke="url(#goldGradient)" stroke-width="2"/>
    
    <!-- Chalice stem -->
    <rect x="145" y="175" width="10" height="40" fill="url(#chaliceGradient)" rx="5"/>
    
    <!-- Chalice base -->
    <ellipse cx="150" cy="215" rx="25" ry="8" fill="url(#chaliceGradient)" stroke="url(#goldGradient)" stroke-width="1"/>
  </g>
  
  <!-- Tree growing from chalice -->
  <g>
    <!-- Bottom tier (widest) -->
    <path d="M 120 130 L 180 130 L 170 110 L 130 110 Z" fill="url(#treeGradient)"/>
    
    <!-- Middle tier -->
    <path d="M 125 110 L 175 110 L 165 90 L 135 90 Z" fill="url(#treeGradient)"/>
    
    <!-- Top tier -->
    <path d="M 130 90 L 170 90 L 160 70 L 140 70 Z" fill="url(#treeGradient)"/>
    
    <!-- Tree top -->
    <path d="M 140 70 L 160 70 L 150 50 Z" fill="url(#treeGradient)"/>
  </g>
  
  <!-- Glow effect around the emblem -->
  <circle cx="150" cy="150" r="125" fill="none" stroke="url(#goldGradient)" stroke-width="1" opacity="0.3"/>
</svg>


