<svg xmlns="http://www.w3.org/2000/svg" viewBox="0 0 300 400" width="300" height="400" role="img" aria-label="Baumholz Home - The Last Chapter">
  <defs>
    <!-- Golden gradient for the chalice -->
    <linearGradient id="goldGradient" x1="0%" y1="0%" x2="100%" y2="100%">
      <stop offset="0%" stop-color="#F0D7A1"/>
      <stop offset="50%" stop-color="#D4A15A"/>
      <stop offset="100%" stop-color="#B8945A"/>
    </linearGradient>
    
    <!-- Glow effect -->
    <filter id="glow">
      <feGaussianBlur stdDeviation="4" result="coloredBlur"/>
      <feMerge> 
        <feMergeNode in="coloredBlur"/>
        <feMergeNode in="SourceGraphic"/>
      </feMerge>
    </filter>
    
    <!-- Tree gradient -->
    <linearGradient id="treeGradient" x1="0%" y1="0%" x2="100%" y2="100%">
      <stop offset="0%" stop-color="#4A7C59"/>
      <stop offset="100%" stop-color="#2F6F3E"/>
    </linearGradient>
    
    <!-- Water gradient -->
    <linearGradient id="waterGradient" x1="0%" y1="0%" x2="100%" y2="100%">
      <stop offset="0%" stop-color="#1A3A4A"/>
      <stop offset="100%" stop-color="#0F2A3A"/>
    </linearGradient>
    
    <!-- Foam gradient -->
    <linearGradient id="foamGradient" x1="0%" y1="0%" x2="100%" y2="100%">
      <stop offset="0%" stop-color="#FFFFFF"/>
      <stop offset="50%" stop-color="#F8F8F8"/>
      <stop offset="100%" stop-color="#E8E8E8"/>
    </linearGradient>
    
    <!-- Background glow -->
    <radialGradient id="bgGlow" cx="50%" cy="30%" r="70%">
      <stop offset="0%" stop-color="#D4A15A" stop-opacity="0.2"/>
      <stop offset="100%" stop-color="#D4A15A" stop-opacity="0"/>
    </radialGradient>
  </defs>
  
  <!-- Background glow -->
  <circle cx="150" cy="120" r="100" fill="url(#bgGlow)"/>
  
  <!-- Chalice/Goblet -->
  <g filter="url(#glow)">
    <!-- Chalice stem and base -->
    <path d="M120 280 L120 200 Q120 180 140 180 L160 180 Q180 180 180 200 L180 280 Q180 300 160 300 L140 300 Q120 300 120 280 Z" fill="url(#goldGradient)"/>
    <path d="M100 300 L200 300 Q220 300 220 320 L220 340 Q220 360 200 360 L100 360 Q80 360 80 340 L80 320 Q80 300 100 300 Z" fill="url(#goldGradient)"/>
    
    <!-- Glass bowl -->
    <ellipse cx="150" cy="160" rx="50" ry="60" fill="none" stroke="url(#goldGradient)" stroke-width="4" opacity="0.9"/>
    <ellipse cx="150" cy="160" rx="40" ry="50" fill="none" stroke="url(#goldGradient)" stroke-width="2" opacity="0.7"/>
    
    <!-- Water in the glass -->
    <ellipse cx="150" cy="180" rx="35" ry="35" fill="url(#waterGradient)" opacity="0.8"/>
    
    <!-- Island/land -->
    <ellipse cx="150" cy="170" rx="12" ry="6" fill="#8B4513" opacity="0.9"/>
    
    <!-- Tree trunk -->
    <rect x="147" y="150" width="6" height="20" fill="#8B4513" opacity="0.9"/>
    
    <!-- Tree foliage -->
    <circle cx="150" cy="140" r="12" fill="url(#treeGradient)"/>
    <circle cx="144" cy="136" r="8" fill="url(#treeGradient)"/>
    <circle cx="156" cy="136" r="8" fill="url(#treeGradient)"/>
    <circle cx="150" cy="130" r="7" fill="url(#treeGradient)"/>
    <circle cx="146" cy="134" r="5" fill="url(#treeGradient)"/>
    <circle cx="154" cy="134" r="5" fill="url(#treeGradient)"/>
    
    <!-- Foam/clouds on top -->
    <ellipse cx="150" cy="100" rx="30" ry="12" fill="url(#foamGradient)" opacity="0.95"/>
    <ellipse cx="140" cy="95" rx="12" ry="8" fill="url(#foamGradient)" opacity="0.9"/>
    <ellipse cx="160" cy="95" rx="12" ry="8" fill="url(#foamGradient)" opacity="0.9"/>
    <ellipse cx="150" cy="88" rx="8" ry="6" fill="url(#foamGradient)" opacity="0.8"/>
    <ellipse cx="135" cy="92" rx="6" ry="4" fill="url(#foamGradient)" opacity="0.7"/>
    <ellipse cx="165" cy="92" rx="6" ry="4" fill="url(#foamGradient)" opacity="0.7"/>
  </g>
  
  <!-- Text: BAUMHOLZ HOME -->
  <text x="150" y="320" text-anchor="middle" font-family="Cinzel, serif" font-size="24" font-weight="700" fill="#D4A15A" letter-spacing="2">
    BAUMHOLZ HOME
  </text>
  
  <!-- Separator line -->
  <line x1="100" y1="340" x2="200" y2="340" stroke="#D4A15A" stroke-width="2" opacity="0.8"/>
  
  <!-- Text: THE LAST CHAPTER -->
  <text x="150" y="365" text-anchor="middle" font-family="Cinzel, serif" font-size="14" font-weight="600" fill="#D4A15A" letter-spacing="1">
    THE LAST CHAPTER
  </text>
</svg>


