<svg xmlns="http://www.w3.org/2000/svg" viewBox="0 0 96 96" width="96" height="96" role="img" aria-label="Baumholz Home">
  <defs>
    <radialGradient id="g" cx="50%" cy="50%" r="60%">
      <stop offset="0%" stop-color="#F0D7A1"/>
      <stop offset="100%" stop-color="#D4A15A"/>
    </radialGradient>
  </defs>
  <rect width="96" height="96" rx="18" fill="#0E0B08"/>
  <g transform="translate(16 16)">
    <path d="M32 0a4 4 0 0 1 4 4v14c7.7 1.5 14 8.3 14 16.9C50 43.9 43.9 50 36.9 50H27.1C20.1 50 14 43.9 14 34.9 14 26.3 20.3 19.5 28 18V4a4 4 0 0 1 4-4Z" fill="url(#g)"/>
    <rect x="22" y="54" width="20" height="6" rx="3" fill="#D4A15A" opacity=".9"/>
    <circle cx="32" cy="34" r="6" fill="#2F6F3E"/>
  </g>
</svg>


